<?xml version="1.0" encoding="UTF-8"?><svg id="b" xmlns="http://www.w3.org/2000/svg" viewBox="0 0 197.561 69.148"><defs><style>.d{fill:#595750;}.e{fill:#f08300;}</style></defs><g id="c"><g><path class="d" d="m61.498,64.156c.573.371,1.395.559,1.814.559.666,0,1.488-.28,1.488-1.132,0-1.441-3.426-1.317-3.426-3.533,0-1.644,1.224-2.433,2.789-2.433.682,0,1.24.139,1.814.309l-.124,1.271c-.326-.202-1.193-.403-1.533-.403-.745,0-1.396.31-1.396.961,0,1.612,3.426,1.147,3.426,3.673,0,1.69-1.349,2.464-2.76,2.464-.743,0-1.503-.077-2.17-.434l.079-1.302Z"/><path class="d" d="m74.627,65.381c-.558.202-1.193.511-2.496.511-2.805,0-4.092-1.706-4.092-4.279,0-2.339,1.473-3.997,3.705-3.997,2.634,0,3.487,1.92,3.487,4.463h-5.641c0,1.565,1.224,2.635,2.604,2.635.961,0,2.075-.496,2.433-.791v1.458Zm-.946-4.386c0-1.21-.713-2.201-1.968-2.201-1.425,0-2.014,1.178-2.122,2.201h4.09Z"/><path class="d" d="m77.782,58.36c.729-.434,1.596-.743,2.604-.743,2.263,0,3.177,1.114,3.177,3.27v3.27c0,.899.031,1.319.063,1.55h-1.365v-1.023h-.031c-.34.48-1.116,1.209-2.449,1.209-1.706,0-2.899-.744-2.899-2.464,0-1.984,2.17-2.604,3.674-2.604.574,0,.977,0,1.549.031,0-1.364-.495-2.061-1.952-2.061-.821,0-1.706.31-2.294.805l-.077-1.24Zm4.324,3.58c-.31,0-.619-.031-.929-.031-.791,0-2.744.124-2.744,1.519,0,.836.806,1.286,1.472,1.286,1.443,0,2.201-.899,2.201-2.077v-.698Z"/><path class="d" d="m86.117,64.156c.574.371,1.395.559,1.814.559.666,0,1.488-.28,1.488-1.132,0-1.441-3.426-1.317-3.426-3.533,0-1.644,1.224-2.433,2.791-2.433.682,0,1.24.139,1.812.309l-.123,1.271c-.327-.202-1.194-.403-1.535-.403-.745,0-1.396.31-1.396.961,0,1.612,3.426,1.147,3.426,3.673,0,1.69-1.349,2.464-2.759,2.464-.743,0-1.504-.077-2.17-.434l.077-1.302Z"/><path class="d" d="m96.547,57.617c2.402,0,4.014,1.735,4.014,4.137,0,2.263-1.643,4.138-4.014,4.138-2.387,0-4.03-1.876-4.03-4.138,0-2.402,1.612-4.137,4.03-4.137Zm0,7.098c1.704,0,2.465-1.549,2.465-2.961,0-1.504-.915-2.96-2.465-2.96-1.565,0-2.48,1.456-2.48,2.96,0,1.411.759,2.961,2.48,2.961Z"/><path class="d" d="m102.514,57.802h1.411v1.255h.031c.434-.899,1.488-1.44,2.588-1.44,2.047,0,2.961,1.27,2.961,3.393v4.696h-1.457v-4.092c0-1.844-.403-2.742-1.674-2.82-1.659,0-2.402,1.333-2.402,3.255v3.657h-1.457v-7.905Z"/><path class="d" d="m113.72,56.035h-1.643v-1.644h1.643v1.644Zm-1.551,1.767h1.457v7.905h-1.457v-7.905Z"/><path class="d" d="m116.292,57.802h1.412v1.255h.031c.432-.899,1.488-1.44,2.588-1.44,2.046,0,2.96,1.27,2.96,3.393v4.696h-1.457v-4.092c0-1.844-.402-2.742-1.674-2.82-1.658,0-2.402,1.333-2.402,3.255v3.657h-1.457v-7.905Z"/><path class="d" d="m133.063,65.365c0,2.402-1.241,3.782-4.077,3.782-.837,0-1.565-.109-2.836-.542l.155-1.349c1.116.511,1.783.713,2.852.713,1.533,0,2.449-1.039,2.449-2.712v-.775h-.031c-.621.822-1.644,1.224-2.65,1.224-2.263,0-3.379-1.844-3.379-3.89,0-2.03,1.146-4.199,3.534-4.199,1.395,0,2.17.51,2.604,1.363h.031v-1.178h1.349v7.564Zm-1.457-3.518c0-1.643-.759-3.053-2.31-3.053-1.472,0-2.199,1.597-2.199,2.945,0,1.487.837,2.788,2.199,2.788s2.31-1.208,2.31-2.68Z"/><path class="d" d="m139.572,67.845c.186.062.434.125.682.125,1.303,0,1.735-1.798,1.735-1.953,0-.171-.184-.574-.278-.837l-2.682-7.378h1.597l2.123,6.541h.031l2.171-6.541h1.472l-2.915,8.076c-.542,1.517-1.116,3.27-3.037,3.27-.466,0-.73-.063-.993-.109l.093-1.194Z"/><path class="d" d="m151.076,57.617c2.404,0,4.014,1.735,4.014,4.137,0,2.263-1.641,4.138-4.014,4.138-2.386,0-4.029-1.876-4.029-4.138,0-2.402,1.612-4.137,4.029-4.137Zm0,7.098c1.706,0,2.465-1.549,2.465-2.961,0-1.504-.914-2.96-2.465-2.96-1.564,0-2.48,1.456-2.48,2.96,0,1.411.761,2.961,2.48,2.961Z"/><path class="d" d="m163.498,65.706h-1.411v-1.256h-.031c-.434.899-1.488,1.442-2.588,1.442-2.046,0-2.961-1.271-2.961-3.394v-4.697h1.457v4.092c0,1.844.403,2.743,1.674,2.821,1.659,0,2.402-1.333,2.402-3.255v-3.658h1.457v7.905Z"/><path class="d" d="m165.979,57.802h1.363v1.224h.032c.387-.821,1.224-1.409,2.061-1.409.435,0,.651.045.961.107v1.302c-.263-.107-.557-.139-.806-.139-1.301,0-2.154,1.241-2.154,3.224v3.596h-1.456v-7.905Z"/><path class="d" d="m176.811,54.083h1.457v11.624h-1.457v-11.624Z"/><path class="d" d="m182.671,56.035h-1.644v-1.644h1.644v1.644Zm-1.551,1.767h1.457v7.905h-1.457v-7.905Z"/><path class="d" d="m186.188,58.98h-1.859v-1.178h1.859v-.728c0-1.922.496-3.178,2.652-3.178.371,0,.682.046.976.092l-.061,1.178c-.171-.063-.45-.093-.698-.093-1.254,0-1.411.807-1.411,1.876v.852h2.093v1.178h-2.093v6.727h-1.457v-6.727Z"/><path class="d" d="m196.939,65.381c-.559.202-1.194.511-2.497.511-2.805,0-4.092-1.706-4.092-4.279,0-2.339,1.473-3.997,3.705-3.997,2.636,0,3.487,1.92,3.487,4.463h-5.641c0,1.565,1.224,2.635,2.604,2.635.962,0,2.077-.496,2.434-.791v1.458Zm-.946-4.386c0-1.21-.713-2.201-1.968-2.201-1.425,0-2.014,1.178-2.123,2.201h4.092Z"/></g><g><g><path class="e" d="m134.4,42.553v-6.26c0-5.305-2.986-7.595-7.217-7.595s-5.785,1.573-6.703,2.496c-.927-.926-2.466-2.496-6.704-2.496s-7.225,2.29-7.225,7.595v6.611c0,2.468-.373,4.453-.425,4.738h7.335v-10.681c0-2.298,0-3.936,1.833-3.936s1.827,1.637,1.827,3.936v10.681h6.711v-10.673c0-2.306,0-3.944,1.836-3.944,1.826,0,1.826,1.637,1.826,3.944v6.966c0,2.835,1.909,4.115,4.191,4.115,1.032,0,2.576,0,4.036-.297.45-.091.45-.172.105-.521-.505-.496-1.425-1.753-1.425-4.68Zm-116.895-1.016c-1.905-2.579-3.694-5.389-3.694-5.389l8.718-8.461c-1.472-.113-3.704-.474-5.697-.094-2.104.408-3.383,1.469-5.439,3.699-2.056,2.23-4.039,4.399-4.039,4.399v-15.363H.424v22.519c0,2.468-.37,4.453-.424,4.794h7.784c-.048-.341-.43-2.327-.43-4.794v-4.574l4.54,6.501c1.415,2.066,3.328,3.174,5.608,3.214,2.281.04,3.575-.144,5.454-.336v-.129c-1.391-.925-3.549-3.411-5.451-5.988Zm11.18-14.085c1.995,0,3.615-1.617,3.615-3.618s-1.62-3.615-3.615-3.615-3.615,1.617-3.615,3.615,1.618,3.618,3.615,3.618Zm3.464,2.623h-6.931v12.772c0,2.468-.372,4.453-.429,4.794h7.783c-.052-.333-.423-2.327-.423-4.794v-12.772Zm61.233-1.822c-5.441,0-10.603,4.08-10.603,10.005s5.166,10,10.646,10c5.393,0,10.671-3.962,10.671-10,0-6.23-5.559-10.005-10.714-10.005Zm.097,16.009c-3.232,0-3.708-3.57-3.708-6.004,0-2.582.527-5.993,3.708-5.993,2.997,0,3.596,3.419,3.596,5.973,0,2.426-.546,6.024-3.596,6.024Zm86.162,2.971c-.486-.568-1.417-1.844-1.417-4.664v-5.957c0-2.542-.601-7.924-9.403-7.924s-9.392,5.382-9.392,7.836l-.004,6.842c0,2.786-4.593,2.786-4.593,0v-6.842c0-2.502.173-7.836-8.769-7.836-5.171,0-7.258,2.547-6.511,5.946,1.254-.877,3.811-1.777,5.756-1.777.996,0,2.553.231,2.553,1.469,0,1.097-1.058,1.621-2.514,2.054-3.191.949-8.28,2.286-8.28,6.622s5.109,6.349,10.817,4.096c.581-.232,1.005-.483,1.319-.737.783.767,1.988,1.288,3.834,1.288,1.535,0,13.842-.007,13.842-.007-.307-.461-.545-2.113-.545-4.347v-6.746c0-.877.024-3.519,2.504-3.519s2.484,2.642,2.484,3.519v7.387c0,2.835,1.902,4.115,4.156,4.115.99,0,2.544-.021,4.07-.297.466-.113.42-.135.095-.521Zm-36.28-3.99c0-2.322,2.864-3.599,4.498-3.996-.008.032,0,1.625,0,3.255,0,.673.071,1.429.314,2.153-1.761.837-4.812.729-4.812-1.413Z"/><path class="e" d="m54.131,41.538c-1.903-2.579-3.692-5.389-3.692-5.389l8.716-8.461c-1.469-.113-3.699-.474-5.693-.094-2.104.408-3.389,1.469-5.44,3.699-2.059,2.23-4.041,4.399-4.041,4.399v-15.363h-6.929v22.519c0,2.468-.368,4.453-.425,4.794h7.785c-.051-.341-.431-2.327-.431-4.794v-4.574l4.536,6.501c1.418,2.066,3.33,3.174,5.613,3.214,2.279.04,3.574-.144,5.453-.336v-.129c-1.386-.925-3.547-3.411-5.453-5.988Z"/><path class="e" d="m85.587,48.555c-2.826-1.483-5.408-4.688-7.077-6.997-.388-.541-3.739-5.409-3.739-5.409l8.707-8.461c-1.465-.113-3.699-.474-5.693-.094-2.1.408-3.381,1.469-5.436,3.699-1.898,2.056-3.727,4.056-4,4.356v-15.319h-6.952v22.519c0,2.468-.349,4.453-.407,4.794h7.788c-.05-.341-.429-2.327-.429-4.794v-4.574s2.112,2.914,4.78,6.738c3.307,4.747,6.121,4.275,12.333,3.97.552-.115.415-.296.124-.428Z"/></g><g><path class="e" d="m190.181,16.734c-.366,1.217-1.25.611-1.25-.077,0-.929.315-1.195.315-1.195l-.641-.747h-2.808v-.861h2.245l1.012-2.238-.47-.846h-1.274v-1.04h1.792l.323-.775h.75v-.099h-2.872v-.39l-.573-.337-.551.337v.398h-3.473v-.398l-.55-.337-.575.337v.39h-2.872v.099h.75l.322.775h1.794v1.04h-1.273l-.471.846,1.012,2.238h2.246v.861h-2.808l-.641.747s.314.266.314,1.195c0,.689-.885,1.295-1.25.077,0,0-.224,2.113,1.102,2.113.879,0,1.3-1.28,1.001-3.143h2.282v1.371h-.77v-.707l-.324-.23-.348.239v1.587l.717.735s.747-.699,2.079-.701c1.333.001,2.082.701,2.082.701l.715-.735v-1.587l-.347-.239-.324.23v.707h-.77v-1.371h2.281c-.295,1.863.121,3.143,1.002,3.143,1.327,0,1.101-2.113,1.101-2.113Zm-7.085-4.616h-1.097l.175.366h.922v.514h-1.791l-.625-1.383h2.415v.502Zm1.345-1.349h-1.726v-1.028h3.452v1.028h-1.727Zm1.347,2.229v-.514h.925l.172-.366h-1.097v-.502h2.417l-.625,1.383h-1.792Z"/><path class="e" d="m176.176,9.483v8.422l8.265,4.095,8.27-4.095v-8.422l-8.27-4.032-8.265,4.032Zm8.265-3.576c.173.083,7.639,3.725,7.859,3.833v7.912c-.219.109-7.683,3.802-7.859,3.89-.175-.088-7.636-3.781-7.855-3.89v-7.912c.22-.107,7.682-3.749,7.855-3.833Z"/><path class="e" d="m197.561,6.418l-13.111-6.418-13.135,6.418v14.474l13.125,6.561,13.12-6.561V6.418Zm-4.014,11.992l-9.1,4.462-9.115-4.446v-9.442l9.107-4.443,9.108,4.425v9.444Z"/></g></g></g></svg>